<svg width="420" height="341" viewBox="0 0 420 341" fill="none" xmlns="http://www.w3.org/2000/svg">
<path d="M208.352 238.537C230.418 272.463 247.116 287.673 275.017 308.616L295.873 280.976C270.304 262.578 257.046 249.534 237.076 216.962C252.086 193.642 258.136 179.873 261.322 153.047C280.094 139.09 314.465 101.171 319.445 88.4905C324.425 75.8104 318.629 63.1815 304.064 58.4876C289.501 53.7945 281.586 55.7753 274.238 57.6143L274.235 57.6151L279.179 39.1615L248.269 36.4171C248.269 36.4171 235.305 57.2427 237.428 71.4869C240.709 93.5007 264.852 84.7121 283.358 86.5063C268.624 105.184 256.648 118.215 238.652 134.315C234.975 94.9772 224.905 38.5044 166.911 68.4146L158.569 46.401L127.736 61.0824C137.951 94.3349 134.299 114.716 182.977 94.0803C185.754 92.903 192.414 90.1668 195.183 95.7685C197.951 101.37 207.953 145.389 196.309 183.095C144.355 199.074 115.054 208.274 79.0321 201.513L69.5384 236.944C124.076 238.976 145.557 232.643 183.071 220.688C172.258 236.42 164.305 244.488 147.781 257.909L165.179 281.558C183.747 267.918 191.701 257.69 208.352 238.537Z" fill="#D8D8D8" style="mix-blend-mode:difference"/>
<path d="M110.584 315.804L118.565 298.976L100.261 302.892L98.4166 290.525L117.021 289.041L104.454 275.243L114.301 267.354L124.986 282.723L130.662 264.984L142.184 269.536L134.264 286.389L152.568 282.472L154.304 294.937L135.76 296.445L148.267 310.219L138.528 318.01L127.844 302.642L122.107 320.356L110.584 315.804Z" fill="#E2A14F"/>
</svg>
